<svg width="15" height="14" viewBox="0 0 15 14" fill="none" xmlns="http://www.w3.org/2000/svg">
<path d="M0.928031 13.2846C0.75824 13.2748 0.593875 13.2212 0.450953 13.129C0.308032 13.0368 0.191423 12.9092 0.112487 12.7586C0.0335508 12.6079 -0.00502391 12.4394 0.000524156 12.2694C0.00607222 12.0994 0.0555578 11.9338 0.144149 11.7886L7.0394 0.472321C7.13225 0.319939 7.26476 0.19565 7.42277 0.112741C7.58078 0.0298326 7.75835 -0.00858087 7.9365 0.00160624C8.11465 0.0117933 8.28669 0.0702005 8.43422 0.170581C8.58175 0.270962 8.69922 0.409544 8.7741 0.571517L14.3298 12.6023C14.4014 12.7566 14.4317 12.9269 14.4178 13.0964C14.4039 13.266 14.3463 13.429 14.2506 13.5696C14.1549 13.7103 14.0243 13.8237 13.8717 13.8988C13.7191 13.9739 13.5496 14.0082 13.3798 13.9983L0.928031 13.2846Z" fill="#EC5865"/>
<path d="M7.69822 8.73449C7.67388 8.81074 7.62491 8.87674 7.55899 8.92214C7.49308 8.96755 7.41396 8.98978 7.33405 8.98535C7.25413 8.98092 7.17795 8.95008 7.11745 8.89767C7.05696 8.84526 7.01559 8.77425 6.99982 8.69578C6.29175 5.03444 6.34014 5.29171 6.34014 5.2538C6.33903 5.08845 6.37183 4.92462 6.43653 4.77244C6.50122 4.62026 6.59643 4.48295 6.71627 4.36901C6.83611 4.25507 6.97804 4.16691 7.13329 4.10998C7.28853 4.05304 7.45381 4.02853 7.6189 4.03798C7.78399 4.04742 7.94539 4.09061 8.09313 4.16489C8.24087 4.23916 8.37182 4.34293 8.47789 4.46979C8.58395 4.59666 8.66288 4.74393 8.70979 4.90249C8.75671 5.06106 8.77061 5.22756 8.75065 5.39171C8.74339 5.4288 8.82162 5.17638 7.69822 8.73449Z" fill="#FFFDFC"/>
<path d="M8.1587 10.7893C8.14802 10.9755 8.08239 11.1543 7.97009 11.3032C7.85778 11.452 7.70386 11.5642 7.52778 11.6256C7.35171 11.687 7.16139 11.6947 6.98089 11.6479C6.80039 11.6011 6.63783 11.5019 6.51375 11.3627C6.38967 11.2235 6.30966 11.0506 6.28383 10.866C6.258 10.6813 6.2875 10.4931 6.36862 10.3252C6.44974 10.1573 6.57883 10.0173 6.73956 9.92274C6.90029 9.82821 7.08544 9.78346 7.27159 9.79416C7.52119 9.80851 7.75487 9.92141 7.92123 10.108C8.08759 10.2947 8.17301 10.5397 8.1587 10.7893Z" fill="#FFFDFC"/>
</svg>
