<svg width="389" height="447" viewBox="0 0 389 447" fill="none" xmlns="http://www.w3.org/2000/svg">
<g clip-path="url(#clip0_23_308)" filter="url(#filter0_d_23_308)">
<g filter="url(#filter1_d_23_308)">
<path d="M328.603 432.125L182.931 431.453C165.407 431.376 151.269 417.041 151.346 399.436L152.891 32.5482C152.968 14.9321 167.237 0.718163 184.772 0.795234L330.444 1.46685C347.968 1.54392 362.106 15.879 362.029 33.4841L360.484 400.383C360.407 417.999 346.138 432.213 328.603 432.125Z" fill="#455A64"/>
<path d="M330.236 14.1392L301.994 14.0071C298.202 13.9851 295.122 17.2 295.111 21.1746L295.089 26.3163C295.078 30.291 291.988 33.5059 288.207 33.4839L233.158 33.2306C229.366 33.2086 226.308 29.9717 226.33 25.997L226.352 20.8553C226.363 16.8807 223.316 13.6328 219.524 13.6217L209.595 13.5777L184.871 13.4676C172.596 13.4126 162.601 23.3656 162.546 35.6969L161.034 393.81C160.979 406.141 170.887 416.171 183.15 416.226L328.537 416.898C340.812 416.953 350.807 407 350.861 394.668L352.374 36.5557C352.429 24.2244 342.521 14.1943 330.258 14.1392H330.236Z" fill="#FAFAFA"/>
<path d="M162.349 78.669H186.175L207.447 100.029L185.331 122.236L162.601 99.401L162.349 78.669Z" fill="#EBEBEB"/>
<path d="M212.291 90.659L200.356 78.669H227.218L212.291 90.659Z" fill="#EBEBEB"/>
<path d="M222.735 100.447L243.657 79.4291H316.756C316.756 79.4291 327.945 129.635 283.922 161.861L222.735 100.436V100.447Z" fill="#EBEBEB"/>
<path d="M213.782 107.152L191.403 129.646L253.334 191.864L275.713 168.621L213.782 107.152Z" fill="#EBEBEB"/>
<path d="M162.075 142.384L176.103 127.763L162.349 113.945L162.075 142.384Z" fill="#EBEBEB"/>
<path d="M184.498 136.384L162.952 158.03V188.109L207.447 233.845L245.125 198.602L184.498 136.384Z" fill="#EBEBEB"/>
<path d="M292.24 168.181C292.24 168.181 338.39 134.182 323.474 79.4398H352.177L351.826 233.977L292.24 168.192V168.181Z" fill="#EBEBEB"/>
<path d="M283.593 177.099L261.269 200.517L329.71 269.264L350.642 246.98L283.593 177.099Z" fill="#EBEBEB"/>
<path d="M251.942 206.925L216.872 241.915L287.023 311.906L322.038 277.896L251.942 206.925Z" fill="#EBEBEB"/>
<path d="M233.563 382.238L287.187 326.384L338.203 378.627L233.563 382.238Z" fill="#EBEBEB"/>
<path d="M295.549 319.184L351.398 263.605C351.398 266.071 350.916 378.902 350.916 378.902L295.549 319.195V319.184Z" fill="#EBEBEB"/>
<path d="M247.734 287.948L279.417 319.778L216.872 384.639L187.961 349.803L247.734 287.948Z" fill="#EBEBEB"/>
<path d="M162.13 354.328C165.122 354.03 241.739 281.948 241.739 281.948L162.13 199.075V354.328Z" fill="#EBEBEB"/>
<path d="M161.023 370.755L179.468 354.328L205.014 384.639H161.023V373.045" fill="#EBEBEB"/>
<path d="M184.893 56.8473C184.783 56.9574 182.339 54.8214 179.424 52.0689C179.424 51.2321 179.424 51.8377 179.424 51.6505H179.435L179.457 51.6175L179.49 51.5845L179.555 51.5184L179.687 51.3863L179.961 51.133C180.136 50.9679 180.312 50.8027 180.487 50.6376C180.827 50.3183 181.166 50.01 181.495 49.7127C182.098 49.1733 182.668 48.6668 183.216 48.1713C184.202 47.3015 184.849 46.8061 184.904 46.8611C184.958 46.9162 184.41 47.5328 183.49 48.4686C182.964 48.9861 182.427 49.5256 181.857 50.0981L180.881 51.045L180.355 51.5404L180.092 51.7936L179.961 51.9258L179.895 51.9918L179.862 52.0249H179.84V52.0469H179.829C179.829 51.8707 179.829 52.4653 179.829 51.6395C182.745 54.403 185.024 56.7262 184.915 56.8363L184.893 56.8473Z" fill="#303E44"/>
<path d="M336.373 48.4466C336.373 49.1072 335.836 49.6357 335.19 49.6357C334.543 49.6357 334.006 49.0962 334.006 48.4466C334.006 47.797 334.543 47.2576 335.19 47.2576C335.836 47.2576 336.373 47.797 336.373 48.4466Z" fill="#303E44"/>
<path d="M336.033 51.706C336.494 52.1684 336.494 52.9281 336.033 53.3905C335.573 53.8529 334.817 53.8529 334.357 53.3905C333.896 52.9281 333.896 52.1684 334.357 51.706C334.817 51.2436 335.573 51.2436 336.033 51.706Z" fill="#303E44"/>
<path d="M336.373 56.6604C336.373 57.321 335.836 57.8495 335.19 57.8495C334.543 57.8495 334.006 57.31 334.006 56.6604C334.006 56.0108 334.543 55.4713 335.19 55.4713C335.836 55.4713 336.373 56.0108 336.373 56.6604Z" fill="#303E44"/>
<path d="M285.018 53.3241H233.75V57.618H285.018V53.3241Z" fill="#303E44"/>
<path d="M279.45 130.406C279.45 110.345 258.463 97.6286 237.07 107.692C232.237 109.96 228.237 113.802 225.815 118.537C220.434 129.007 222.812 140.975 227.689 150.906L244.336 193.306C246.736 199.417 255.361 199.384 257.707 193.251L274.036 150.631C279.691 137.65 279.45 130.417 279.45 130.417V130.406ZM259.351 147.868C244.972 156.268 230.396 140.744 238.276 125.418C239.328 123.381 240.928 121.664 242.846 120.552C257.225 112.151 271.812 127.675 263.921 143.001C262.869 145.038 261.269 146.755 259.351 147.868Z" fill="#90CBE5"/>
</g>
<g filter="url(#filter2_d_23_308)">
<path d="M751.504 273.985H103.301V369.537H751.504V273.985Z" fill="#FEB62C"/>
<g opacity="0.5">
<path d="M751.504 273.985H103.301V369.537H751.504V273.985Z" fill="black"/>
</g>
<path d="M194.598 431.55C229.04 429.221 255.082 399.284 252.765 364.682C250.447 330.08 220.647 303.917 186.204 306.246C151.762 308.575 125.719 338.513 128.037 373.114C130.355 407.716 160.155 433.879 194.598 431.55Z" fill="#343F44"/>
<path d="M127.917 367.835C127.917 367.835 127.917 367.941 127.917 367.999C127.415 402.671 154.999 431.192 189.511 431.685C224.023 432.19 252.413 404.478 252.915 369.807C252.915 369.748 252.915 369.701 252.915 369.643L127.941 367.835H127.917Z" fill="#343F44"/>
<path d="M146.528 368.27C146.178 392.613 165.537 412.636 189.768 412.988C213.999 413.341 233.93 393.892 234.28 369.549C234.631 345.206 215.272 325.183 191.041 324.831C166.81 324.479 146.879 343.927 146.528 368.27Z" fill="#FAFAFA"/>
<path d="M191.041 324.819C166.811 324.467 146.879 343.915 146.529 368.258L234.281 369.526C234.631 345.183 215.272 325.159 191.041 324.807V324.819Z" fill="#E0E0E0"/>
<path d="M163.679 368.516C163.469 383.34 175.257 395.535 190.025 395.758C204.781 395.969 216.931 384.126 217.141 369.291C217.352 354.467 205.563 342.26 190.796 342.049C176.04 341.837 163.901 353.68 163.679 368.516Z" fill="#343F44"/>
<path d="M272.333 220.229C272.333 220.229 180.293 227.048 146.178 234.736C122.134 240.158 75.7756 249.501 76.3364 278.809L80.0166 299.807C80.0166 299.807 62.8191 307.694 62.8191 327.835C62.8191 347.976 58.6248 379.208 98.7564 380.452C105.369 380.664 117.94 380.452 117.94 380.452C117.94 380.452 110.229 294.572 188.775 292.048C268.676 289.49 263.372 379.666 263.372 379.666H596.831C596.831 379.666 583.15 291.814 669.162 291.696C755.173 291.567 742.088 380.241 742.088 380.241C742.088 380.241 773.725 382.988 788.446 356.274C803.167 329.56 799.335 310.546 799.335 310.546L798.844 293.656C798.681 287.905 794.101 283.269 788.388 283.046C788.388 283.046 794.136 240.522 785.315 233.163C776.494 225.804 728.161 181.414 728.161 181.414L730.463 179.959C734.318 177.529 733.652 171.684 729.341 170.193C710.987 163.855 674.699 151.308 666.171 148.315C664.885 147.869 663.565 147.588 662.21 147.482C657.116 147.095 642.711 146.167 616.249 145.886C584.015 145.545 456.038 145.886 456.038 145.886C456.038 145.886 411.993 149.524 387.458 160.381C361.662 171.79 272.344 220.229 272.344 220.229H272.333Z" fill="#FEB62C"/>
<g opacity="0.4">
<path d="M86.1502 325.511C82.8088 324.83 77.6916 324.76 75.1447 327.037C73.252 328.727 72.7496 331.45 72.4692 333.985C72.072 337.448 71.8734 341.004 72.7029 344.396C73.5207 347.788 75.4952 351.028 78.5445 352.694C81.5938 354.361 85.788 354.091 88.1597 351.544C90.3327 349.22 90.5781 345.723 90.5197 342.53C90.4379 337.999 90.8001 334.161 89.9705 329.713C89.807 328.868 89.363 327.788 88.8256 327.131C87.9377 326.051 87.2601 325.593 86.1619 325.523" fill="black"/>
</g>
<path d="M80.0165 299.807C89.7836 299.83 99.2703 299.267 109.014 298.61C110.066 298.539 111.21 298.422 111.982 297.706C112.916 296.837 112.986 295.405 112.998 294.126C113.045 288.868 112.788 282.882 108.815 279.455C106.385 277.365 103.056 276.708 99.8778 276.403C92.0385 275.664 83.8135 276.274 76.3363 278.786L80.0165 299.783V299.807Z" fill="#FAFAFA"/>
<path d="M282.906 376.978C282.906 376.978 282.871 376.697 282.824 376.145C282.789 375.57 282.73 374.748 282.66 373.68C282.544 371.497 282.368 368.305 282.146 364.208C281.913 360.1 281.644 355.065 281.06 349.243C280.452 343.434 279.564 336.814 277.613 329.725C275.651 322.647 272.648 315.112 268.208 307.706C263.745 300.358 257.88 293.011 250.029 287.33C234.257 276.062 212.959 269.689 190.691 269.419C168.353 269.149 147.136 276.238 131.773 288.058C124.015 293.844 117.59 300.605 112.648 307.671C107.659 314.713 104.014 321.955 101.455 328.833C98.8615 335.711 97.4945 342.272 96.7235 348.046C95.8823 353.833 96.0108 358.891 96.151 362.999C96.4664 367.096 96.8286 370.276 97.2959 372.389C97.4829 373.445 97.6347 374.255 97.7282 374.819C97.8217 375.37 97.8567 375.652 97.8567 375.652C97.8567 375.652 97.7866 375.382 97.6698 374.83C97.553 374.267 97.3894 373.457 97.1674 372.413C96.665 370.3 96.2678 367.119 95.9056 363.011C95.7304 358.903 95.5668 353.821 96.373 348.011C97.1207 342.201 98.4526 335.617 101.035 328.692C103.593 321.779 107.227 314.478 112.227 307.389C117.181 300.276 123.63 293.457 131.434 287.623C146.879 275.71 168.236 268.551 190.703 268.821C213.099 269.102 234.491 275.511 250.368 286.884C258.289 292.635 264.178 300.053 268.652 307.447C273.104 314.901 276.106 322.495 278.046 329.607C279.985 336.743 280.838 343.387 281.41 349.208C281.971 355.042 282.205 360.077 282.392 364.197C282.567 368.305 282.695 371.485 282.789 373.68C282.836 374.748 282.871 375.57 282.894 376.145C282.917 376.697 282.906 376.99 282.906 376.99V376.978Z" fill="white"/>
<path d="M286.068 378.459C286.068 378.459 286.045 378.224 286.033 377.755L285.963 375.677C285.905 373.835 285.823 371.111 285.718 367.567C285.519 360.454 285.215 350.032 284.842 336.792C284.479 323.541 284.047 307.449 283.545 289.022C283.416 284.409 283.288 279.656 283.159 274.761C282.996 272.32 283.253 269.82 283.475 267.308C283.65 266.052 283.825 264.796 284.012 263.529C284.269 262.273 284.526 261.017 284.783 259.738C285.963 254.691 287.681 249.632 289.982 244.702C292.295 239.785 295.041 234.925 298.546 230.418L298.569 230.383L298.604 230.36C316.444 219.069 335.838 206.791 356.354 193.81C361.483 190.559 366.682 187.273 371.951 183.939C377.115 180.418 382.699 177.413 388.459 174.679C394.231 171.956 400.224 169.573 406.381 167.484C409.454 166.404 412.597 165.512 415.739 164.573C418.917 163.763 422.083 162.859 425.331 162.202C437.762 159.432 450.286 158.059 462.554 157.484C474.833 156.909 486.878 156.944 498.584 157.601L498.923 157.625L498.853 157.965C493.327 182.801 488.116 206.228 483.338 227.695V227.742L483.303 227.789C480.394 232.601 478.069 237.66 476.34 242.766C474.681 247.883 473.606 253.141 473.98 258.271C474.377 263.423 474.517 268.47 474.646 273.353C474.739 278.247 474.833 283.001 474.926 287.602C475.195 306.029 475.265 322.097 475.312 335.348C475.323 348.588 475.335 358.987 475.347 366.1C475.335 369.644 475.323 372.356 475.312 374.21C475.312 375.126 475.3 375.806 475.288 376.288C475.288 376.757 475.265 376.992 475.265 376.992C475.265 376.992 475.253 376.757 475.241 376.288C475.241 375.806 475.23 375.114 475.218 374.21C475.218 372.367 475.195 369.644 475.171 366.1C475.125 358.987 475.066 348.576 474.996 335.348C474.903 322.109 474.786 306.029 474.482 287.613C474.389 283.012 474.283 278.259 474.178 273.365C474.038 268.47 473.886 263.447 473.489 258.306C473.103 253.083 474.178 247.766 475.849 242.601C477.59 237.449 479.903 232.367 482.847 227.496L482.812 227.578C487.567 206.099 492.766 182.672 498.269 157.836L498.538 158.2C486.866 157.542 474.821 157.519 462.577 158.094C450.333 158.669 437.855 160.042 425.46 162.801C422.223 163.446 419.069 164.362 415.903 165.16C412.772 166.099 409.641 166.979 406.58 168.059C400.446 170.136 394.464 172.507 388.716 175.219C382.98 177.942 377.419 180.935 372.29 184.42C367.021 187.754 361.822 191.04 356.693 194.28C336.154 207.249 316.748 219.515 298.896 230.782L298.955 230.723C295.497 235.16 292.751 240.008 290.449 244.89C288.148 249.785 286.442 254.808 285.262 259.82C282.633 269.879 283.954 279.808 283.977 288.998C284.433 307.426 284.83 323.517 285.157 336.769C285.472 350.008 285.718 360.431 285.881 367.543C285.951 371.088 286.01 373.811 286.057 375.654C286.068 376.569 286.08 377.262 286.092 377.731C286.092 378.201 286.092 378.435 286.092 378.435L286.068 378.459Z" fill="#303E44"/>
<path d="M303.492 230.475L481.928 227.177L598.058 225.041L636.355 202.834C639.452 201.039 640.281 196.907 638.12 194.043L614.286 162.576C611.798 159.29 607.942 157.353 603.841 157.318L473.948 156.261C473.948 156.261 425.031 153.409 386.5 175.088C345.936 197.905 303.492 230.487 303.492 230.487V230.475Z" fill="#303E44"/>
<path d="M385.273 159.501C385.273 159.501 394.223 163.598 388.393 167.4C382.574 171.192 292.17 228.457 292.17 228.457L271.386 219.009C308.2 198.398 345.387 178.398 385.273 159.513V159.501Z" fill="#455A64"/>
<path d="M295.091 229.888C295.091 229.888 294.904 229.947 294.53 230.029L292.883 230.393C291.411 230.698 289.273 231.144 286.539 231.708C281.025 232.811 273.034 234.36 263.126 236.062C243.312 239.489 215.786 243.48 185.211 246.144C177.571 246.813 170.093 247.365 162.873 247.834C155.653 248.316 148.69 248.75 142.077 249.36C128.852 250.522 116.994 252.459 107.367 255.335C97.7165 258.116 90.3328 261.684 85.4843 264.501C82.9958 265.816 81.2316 267.107 79.9699 267.882C79.3623 268.269 78.895 268.574 78.5445 268.785C78.2174 268.985 78.0421 269.079 78.0421 269.079C78.0421 269.079 78.194 268.95 78.4978 268.738C78.8366 268.504 79.2922 268.187 79.8881 267.776C81.1265 266.966 82.879 265.64 85.3558 264.29C90.1809 261.403 97.5646 257.752 107.238 254.912C116.889 251.966 128.77 249.982 142.019 248.797C148.643 248.175 155.606 247.717 162.827 247.236C170.047 246.755 177.512 246.203 185.153 245.534C215.716 242.881 243.23 238.961 263.056 235.64C272.975 233.985 280.966 232.506 286.504 231.473C289.25 230.956 291.388 230.546 292.871 230.264C293.584 230.135 294.133 230.041 294.53 229.959C294.904 229.9 295.103 229.877 295.103 229.877L295.091 229.888Z" fill="#303E44"/>
<path d="M580.019 340.651C580.019 340.816 512.888 340.957 430.09 340.957C347.291 340.957 280.148 340.816 280.148 340.651C280.148 340.487 347.268 340.346 430.09 340.346C512.911 340.346 580.019 340.487 580.019 340.651Z" fill="#303E44"/>
<path d="M109.96 311.168C109.96 311.332 100.462 311.473 88.7556 311.473C77.0491 311.473 67.5507 311.332 67.5507 311.168C67.5507 311.004 77.0374 310.863 88.7556 310.863C100.474 310.863 109.96 311.004 109.96 311.168Z" fill="#303E44"/>
<path d="M325.876 224.407C325.876 224.407 382.913 183.022 405.415 174.806C427.134 166.872 438.455 164.876 458.854 164.301C478.353 163.75 490.234 164.29 490.234 164.29L475.163 222.564L325.876 224.431V224.407Z" fill="#455A64"/>
<path d="M317.534 224.595C317.534 220.968 319.486 217.623 322.628 215.839L335.725 208.444C339.464 206.332 343.67 205.228 347.957 205.228C350.621 205.228 353.25 205.651 355.738 206.472C361.334 208.315 365.061 213.656 365.295 219.571C365.611 227.787 359.056 234.63 350.866 234.63H327.524C322.009 234.63 317.534 230.134 317.534 224.595Z" fill="#FEB62C"/>
<path d="M317.534 224.595C317.534 224.595 317.57 225.041 317.686 225.863C317.792 226.684 318.095 227.905 318.831 229.302C319.602 230.675 320.888 232.201 322.85 233.269C323.832 233.785 324.977 234.172 326.215 234.337C327.453 234.489 328.82 234.395 330.246 234.407C335.947 234.384 342.723 234.372 350.236 234.337C352.105 234.337 353.986 234.114 355.797 233.421C357.608 232.74 359.302 231.672 360.739 230.264C362.164 228.855 363.344 227.13 364.068 225.182C364.804 223.233 365.096 221.097 364.945 218.973C364.617 214.7 362.351 210.757 359.045 208.468C357.409 207.294 355.528 206.625 353.635 206.179C351.743 205.722 349.838 205.51 347.981 205.51C344.254 205.51 340.737 206.344 337.723 207.717C336.216 208.398 334.837 209.254 333.47 209.994C332.115 210.757 330.807 211.485 329.568 212.177C327.08 213.562 324.836 214.806 322.85 215.921C320.876 216.989 319.591 218.527 318.843 219.9C318.084 221.285 317.803 222.517 317.686 223.339C317.57 224.172 317.581 224.607 317.546 224.607C317.546 224.607 317.488 224.161 317.57 223.316C317.651 222.482 317.897 221.226 318.644 219.783C319.38 218.362 320.689 216.743 322.698 215.616C324.673 214.489 326.904 213.21 329.369 211.801C330.608 211.097 331.905 210.358 333.248 209.583C334.604 208.832 335.982 207.963 337.524 207.259C340.585 205.839 344.184 204.959 347.992 204.947C349.897 204.947 351.848 205.158 353.787 205.616C355.715 206.062 357.701 206.754 359.407 207.987C362.853 210.369 365.237 214.489 365.564 218.938C365.727 221.156 365.424 223.386 364.653 225.417C363.893 227.447 362.666 229.255 361.171 230.71C359.676 232.177 357.9 233.292 356.019 233.985C354.138 234.701 352.14 234.935 350.247 234.912C342.735 234.888 335.97 234.865 330.257 234.841C328.832 234.818 327.488 234.888 326.18 234.724C324.883 234.548 323.703 234.125 322.698 233.574C320.677 232.435 319.392 230.827 318.633 229.419C317.908 227.975 317.64 226.719 317.57 225.886C317.499 225.041 317.546 224.595 317.546 224.595H317.534Z" fill="#303E44"/>
<path d="M472.663 230.475C472.663 230.475 472.569 230.498 472.394 230.51C472.184 230.51 471.915 230.533 471.6 230.545C470.852 230.557 469.836 230.58 468.55 230.615C465.852 230.662 462.031 230.733 457.346 230.815C447.883 230.991 434.821 231.343 420.381 231.742C405.941 232.141 392.867 232.423 383.404 232.482C378.672 232.517 374.84 232.517 372.188 232.482C370.903 232.458 369.886 232.446 369.139 232.435L368.344 232.411C368.169 232.411 368.076 232.388 368.076 232.376C368.076 232.364 368.169 232.353 368.344 232.341C368.555 232.341 368.823 232.317 369.139 232.306C369.886 232.294 370.903 232.27 372.188 232.235C374.887 232.188 378.707 232.118 383.392 232.036C392.855 231.86 405.929 231.507 420.369 231.108C434.81 230.709 447.883 230.428 457.346 230.369C462.078 230.334 465.91 230.334 468.562 230.369C469.847 230.392 470.864 230.404 471.611 230.416C471.927 230.416 472.184 230.439 472.406 230.439C472.581 230.439 472.675 230.463 472.675 230.475H472.663Z" fill="white"/>
<path d="M435.183 189.325C435.254 189.478 423.15 194.83 408.16 201.285C393.171 207.741 380.962 212.835 380.904 212.682C380.834 212.529 392.937 207.177 407.927 200.722C422.916 194.278 435.125 189.172 435.183 189.325Z" fill="white"/>
<path d="M145.08 238.468C145.08 238.468 144.846 238.538 144.391 238.597C143.876 238.667 143.222 238.749 142.404 238.855C141.54 238.949 140.488 239.09 139.273 239.289C138.058 239.489 136.668 239.665 135.149 239.97C132.1 240.498 128.501 241.308 124.541 242.364C120.604 243.468 116.304 244.841 111.911 246.555C107.519 248.303 103.441 250.217 99.8077 252.106C96.186 254.031 93.0082 255.897 90.4028 257.599C89.0826 258.409 87.9377 259.231 86.9212 259.923C85.8931 260.604 85.0286 261.226 84.3393 261.743C83.6733 262.212 83.1359 262.599 82.7153 262.904C82.3415 263.163 82.1312 263.292 82.1195 263.28C82.1078 263.268 82.283 263.104 82.6335 262.811C83.0424 262.482 83.5565 262.071 84.1991 261.555C84.8767 261.003 85.7179 260.358 86.7343 259.642C87.7391 258.926 88.8723 258.081 90.1808 257.235C92.7628 255.487 95.9406 253.573 99.5507 251.613C103.184 249.688 107.285 247.74 111.701 245.991C116.129 244.266 120.44 242.893 124.412 241.825C128.396 240.792 132.018 240.029 135.091 239.548C136.621 239.266 138.023 239.113 139.238 238.961C140.465 238.785 141.516 238.691 142.381 238.632C143.199 238.573 143.853 238.526 144.379 238.479C144.834 238.456 145.08 238.444 145.08 238.479V238.468Z" fill="white"/>
<path d="M353.705 210.78C353.705 210.78 353.355 210.322 352.584 209.689C351.813 209.067 350.493 208.351 348.728 208.128C346.953 207.893 344.814 208.198 342.501 208.808C340.176 209.395 337.676 210.217 335.141 211.32C330.059 213.515 325.923 216.438 323.177 218.797C320.397 221.144 318.936 222.869 318.843 222.787C318.808 222.764 319.158 222.318 319.824 221.543C320.502 220.78 321.518 219.7 322.885 218.48C325.584 216.015 329.743 212.999 334.896 210.768C337.466 209.653 340.001 208.832 342.361 208.268C344.698 207.682 346.929 207.412 348.787 207.705C350.644 207.999 351.988 208.808 352.747 209.524C353.133 209.876 353.378 210.205 353.53 210.428C353.67 210.663 353.74 210.792 353.717 210.804L353.705 210.78Z" fill="white"/>
</g>
<g filter="url(#filter3_d_23_308)">
<path d="M167.745 181.391C163.084 155.71 159.941 151.766 157.289 142.928C154.683 134.196 150.454 128.35 145.232 126.332C141.703 124.97 124.132 118.597 117.998 120.71C111.187 123.057 105.24 126.473 101.023 129.278C96.922 132.012 93.8143 136.003 92.167 140.663L82.7621 167.153L99.2119 183.644L107.46 166.038L116.409 187.118L115.089 208.421L166.425 222.295C171.098 214.783 170.397 195.98 167.745 181.414V181.391Z" fill="#FEB62C"/>
<g opacity="0.2">
<path d="M154.38 153.386C152.113 166.754 151.751 168.597 149.484 181.966C148.702 186.555 146.435 193.715 143.176 197.024C140.769 199.478 138.397 201.848 135.056 202.647C131.936 203.386 127.216 203.468 124.284 202.165C121.352 200.863 118.863 195.158 120.066 192.177C124.412 193.116 125.768 194.571 129.518 192.177C132.789 190.088 137.439 185.463 139.215 182.001C146.704 167.447 148.76 166.919 154.356 153.374" fill="black"/>
</g>
<path d="M117.227 179.278C117.157 179.325 116.304 177.952 114.961 175.722C113.524 173.363 111.69 170.37 109.668 167.06C107.601 163.774 105.72 160.816 104.247 158.48C102.845 156.285 102.004 154.924 102.074 154.877C102.109 154.853 102.366 155.158 102.81 155.745C103.254 156.32 103.862 157.177 104.61 158.245C106.105 160.381 108.091 163.374 110.182 166.743C112.274 170.123 114.073 173.234 115.323 175.511C115.954 176.649 116.445 177.588 116.772 178.234C117.099 178.891 117.262 179.255 117.227 179.278Z" fill="#303E44"/>
<path d="M153.048 203.257C153.048 203.257 152.627 203.456 151.844 203.715C151.447 203.844 150.968 203.996 150.384 204.125C149.812 204.255 149.157 204.431 148.421 204.536C146.961 204.806 145.197 204.971 143.222 205.006C141.26 205.006 139.086 204.853 136.855 204.454C134.624 204.032 132.544 203.409 130.698 202.705C128.875 201.978 127.275 201.191 126.001 200.416C125.347 200.064 124.798 199.665 124.307 199.337C123.817 199.02 123.408 198.703 123.092 198.445C122.438 197.928 122.099 197.623 122.123 197.588C122.193 197.494 123.63 198.632 126.212 200.041C127.497 200.757 129.086 201.485 130.897 202.177C132.719 202.834 134.764 203.433 136.96 203.844C139.157 204.231 141.283 204.395 143.222 204.431C145.162 204.431 146.902 204.313 148.351 204.09C151.26 203.679 153.001 203.128 153.036 203.245L153.048 203.257Z" fill="#303E44"/>
<path d="M132.451 163.245C132.357 163.703 126.843 174.735 126.843 174.735L100.813 160.956L98.1606 149.688C97.7401 147.928 96.6652 146.402 95.1581 145.416C93.5575 144.372 91.5947 144.043 89.7371 144.489L82.0613 147.646C81.4187 147.904 80.928 148.456 80.7995 149.137C80.6944 149.712 80.8346 150.264 81.816 150.181C83.7203 150.029 87.6926 149.606 87.6926 149.606L85.8817 156.026C85.4027 157.705 85.5896 159.512 86.3957 161.062L87.5524 163.28L90.0876 167.4L90.0409 167.435C90.0409 167.435 115.347 193.55 129.553 195.24C138.094 196.261 147.767 172.212 147.767 172.212L132.474 163.221L132.451 163.245Z" fill="#FFC7B1"/>
<path d="M87.4589 150.052C87.4589 150.052 87.6575 149.782 88.0898 149.488C88.5221 149.207 89.2114 148.843 90.0643 148.878C90.9405 148.925 91.5831 149.5 91.805 150.005C92.0387 150.533 91.8868 150.885 91.8518 150.873C91.7817 150.873 91.8284 150.533 91.5714 150.134C91.326 149.747 90.7536 149.301 90.0409 149.265C89.3165 149.23 88.674 149.512 88.2183 149.735C87.7627 149.958 87.4823 150.11 87.4589 150.063V150.052Z" fill="#AA6550"/>
<path d="M90.7417 154.055C90.7417 154.055 90.5781 153.843 90.3211 153.526C90.0757 153.221 89.6668 152.834 89.1177 152.623C88.5686 152.4 88.0078 152.4 87.6223 152.458C87.2251 152.517 86.9914 152.599 86.9563 152.552C86.933 152.517 87.1433 152.329 87.5639 152.188C87.9728 152.059 88.6153 152.012 89.2579 152.259C89.9005 152.517 90.3328 152.986 90.5431 153.374C90.765 153.761 90.7884 154.031 90.7417 154.055Z" fill="#AA6550"/>
<path d="M137.848 128.421L130.803 161.977L149.485 173.256L156.658 152.634C156.658 152.634 153.69 127.599 137.848 128.421Z" fill="#FEB62C"/>
<path d="M147.919 129.02C147.919 129.02 147.767 129.137 147.44 129.325C147.113 129.501 146.646 129.759 146.015 130.076C144.776 130.71 142.965 131.602 140.687 132.623C136.142 134.642 129.658 137.224 122.111 138.504C114.564 139.795 107.507 139.196 102.694 137.846C100.275 137.189 98.3826 136.45 97.1208 135.839C96.4782 135.558 96.0109 135.276 95.6838 135.112C95.3566 134.936 95.1931 134.83 95.2047 134.818C95.2281 134.771 95.9291 135.1 97.2142 135.628C98.4994 136.168 100.392 136.837 102.799 137.436C107.589 138.656 114.54 139.184 122.006 137.905C129.471 136.637 135.932 134.149 140.512 132.236C142.802 131.274 144.648 130.44 145.91 129.877C147.183 129.302 147.884 128.997 147.907 129.044L147.919 129.02Z" fill="#EBEBEB"/>
<path d="M152.838 132.717C152.838 132.717 152.674 132.87 152.324 133.104C151.915 133.374 151.401 133.703 150.77 134.102C150.092 134.536 149.263 135.053 148.246 135.569C147.241 136.097 146.12 136.755 144.8 137.33C144.145 137.635 143.468 137.94 142.755 138.269C142.042 138.597 141.271 138.867 140.489 139.173C138.935 139.83 137.206 140.358 135.406 140.945C131.773 142.013 127.696 142.928 123.349 143.468C119.003 143.961 114.821 144.032 111.035 143.844C109.143 143.691 107.344 143.586 105.685 143.316C104.855 143.187 104.037 143.104 103.278 142.964C102.518 142.811 101.782 142.67 101.07 142.529C99.656 142.283 98.4176 141.907 97.3194 141.626C96.2095 141.356 95.2865 141.05 94.5271 140.781C93.8261 140.534 93.2537 140.335 92.7863 140.17C92.3891 140.029 92.1905 139.935 92.1905 139.924C92.1905 139.912 92.4125 139.947 92.8214 140.053C93.2887 140.182 93.8729 140.346 94.5855 140.546C95.3449 140.781 96.2796 141.05 97.3895 141.285C98.4877 141.532 99.7378 141.884 101.14 142.095C101.841 142.224 102.577 142.353 103.336 142.494C104.096 142.623 104.902 142.694 105.731 142.811C107.39 143.058 109.178 143.151 111.047 143.281C114.797 143.433 118.945 143.351 123.256 142.858C127.567 142.318 131.609 141.426 135.219 140.405C137.007 139.83 138.724 139.325 140.278 138.703C141.061 138.398 141.82 138.14 142.533 137.834C143.246 137.518 143.923 137.224 144.578 136.931C145.898 136.391 147.019 135.757 148.036 135.264C149.052 134.771 149.905 134.29 150.594 133.891C151.249 133.527 151.774 133.234 152.195 132.999C152.569 132.799 152.767 132.705 152.779 132.717H152.838Z" fill="#EBEBEB"/>
<path d="M149.484 173.257C149.484 173.257 148.935 173.01 147.966 172.482C146.926 171.895 145.547 171.121 143.853 170.158C140.29 168.092 135.418 165.275 129.798 162.024L129.623 161.919L129.658 161.719C130.161 159.207 130.698 156.52 131.247 153.75C132.1 149.571 132.906 145.604 133.642 141.977C134.028 140.17 134.343 138.444 134.694 136.836C135.067 135.228 135.535 133.738 136.189 132.47C137.474 129.9 139.53 128.503 141.014 128.022C141.774 127.775 142.393 127.717 142.802 127.728C143.211 127.728 143.433 127.775 143.433 127.799C143.433 127.881 142.545 127.717 141.096 128.257C139.682 128.785 137.755 130.181 136.575 132.67C135.967 133.902 135.523 135.358 135.184 136.942C134.869 138.562 134.542 140.275 134.191 142.083C133.467 145.71 132.672 149.689 131.843 153.867C131.282 156.637 130.733 159.325 130.231 161.837L130.09 161.531C135.663 164.853 140.5 167.74 144.028 169.853C145.687 170.874 147.043 171.696 148.059 172.318C148.994 172.905 149.496 173.233 149.473 173.268L149.484 173.257Z" fill="#303E44"/>
<path d="M155.209 151.648C155.279 151.648 155.303 152.845 155.116 154.782C154.929 156.707 154.52 159.36 153.772 162.212C153.024 165.076 152.078 167.576 151.295 169.348C150.513 171.12 149.917 172.153 149.847 172.118C149.765 172.083 150.22 170.979 150.898 169.184C151.576 167.388 152.44 164.888 153.188 162.059C153.924 159.23 154.403 156.625 154.695 154.723C154.987 152.822 155.127 151.637 155.221 151.648H155.209Z" fill="#303E44"/>
<path d="M53.8467 338.292L53.6364 356.215C53.6364 356.215 35.4341 362.025 35.0836 365.335L69.6539 366.99L71.1143 339.079L53.8467 338.304V338.292Z" fill="#455A64"/>
<path d="M64.3963 355.217C65.0622 355.429 65.4828 356.215 65.2959 356.884C65.109 357.553 64.3262 357.999 63.6603 357.799C62.9943 357.6 62.4569 356.673 62.7139 356.027C62.971 355.382 63.929 354.912 64.5248 355.264" fill="#E0E0E0"/>
<path d="M69.6537 366.978L69.6888 364.161L36.5321 363.633C36.5321 363.633 34.9665 364.232 35.0833 365.335L69.6537 366.99V366.978Z" fill="#E0E0E0"/>
<path d="M53.0872 356.004C53.0872 356.168 53.9284 356.285 54.7345 356.872C55.5524 357.436 55.9496 358.187 56.1015 358.128C56.2533 358.105 56.0547 357.072 55.0733 356.391C54.092 355.687 53.0638 355.839 53.0872 356.004Z" fill="#303E44"/>
<path d="M49.3952 357.342C49.3485 357.506 50.0612 357.823 50.6103 358.574C51.1711 359.302 51.2762 360.088 51.4514 360.088C51.6033 360.124 51.7669 359.138 51.0893 358.222C50.4116 357.307 49.4186 357.189 49.4069 357.342H49.3952Z" fill="#303E44"/>
<path d="M47.1287 361.603C47.2806 361.65 47.561 360.805 47.1638 359.866C46.7782 358.915 46.0071 358.504 45.9254 358.645C45.8202 358.774 46.3109 359.302 46.6147 360.089C46.9418 360.864 46.9535 361.579 47.117 361.603H47.1287Z" fill="#303E44"/>
<path d="M53.5895 351.93C53.6479 352.083 54.4424 351.895 55.3887 352.001C56.3467 352.095 57.0711 352.447 57.1645 352.306C57.2697 352.189 56.5687 351.531 55.4471 351.414C54.3255 351.297 53.5077 351.79 53.5895 351.93Z" fill="#303E44"/>
<g opacity="0.3">
<path d="M53.8115 341.838L53.7647 345.03L70.7637 345.687L70.9272 342.824L53.8115 341.838Z" fill="black"/>
</g>
<path d="M53.6945 348.316C53.6945 348.387 54.3488 348.528 55.4236 348.387C55.9611 348.316 56.592 348.175 57.2579 347.917C57.5967 347.788 57.9355 347.624 58.2743 347.436C58.4379 347.342 58.6365 347.248 58.8117 347.049C59.0104 346.884 59.1389 346.438 58.9286 346.145C58.765 345.875 58.4613 345.734 58.2042 345.722C57.9472 345.699 57.7369 345.746 57.55 345.781C57.1644 345.851 56.7906 345.969 56.4518 346.098C55.7741 346.368 55.225 346.72 54.8044 347.072C53.9632 347.776 53.6595 348.398 53.7179 348.434C53.788 348.492 54.2086 347.976 55.0498 347.401C55.4704 347.119 56.0078 346.826 56.6387 346.603C56.9541 346.497 57.2929 346.403 57.6434 346.344C58.0173 346.262 58.3211 346.274 58.4145 346.45C58.4496 346.509 58.4496 346.544 58.3678 346.638C58.286 346.732 58.1341 346.826 57.9706 346.92C57.6551 347.107 57.3397 347.26 57.0359 347.401C56.4167 347.671 55.8325 347.847 55.3302 347.964C54.3254 348.199 53.6712 348.211 53.6712 348.305L53.6945 348.316Z" fill="#303E44"/>
<path d="M53.905 348.574C53.9634 348.598 54.3256 348.011 54.4424 346.92C54.5008 346.38 54.4775 345.711 54.2905 345.006C54.1971 344.654 54.0686 344.29 53.905 343.927C53.7181 343.574 53.4961 343.105 52.8418 342.999C52.503 342.976 52.1993 343.222 52.0941 343.445C51.9656 343.68 51.9422 343.88 51.8838 344.079C51.802 344.478 51.7903 344.877 51.8254 345.253C51.8955 345.992 52.1759 346.626 52.4796 347.084C53.1105 348.011 53.8115 348.258 53.8232 348.199C53.8816 348.117 53.3092 347.765 52.8301 346.873C52.5965 346.438 52.3979 345.863 52.3628 345.218C52.3394 344.889 52.3628 344.549 52.4446 344.22C52.5147 343.856 52.6666 343.563 52.8068 343.61C52.982 343.61 53.2624 343.903 53.3909 344.208C53.5545 344.525 53.683 344.854 53.7765 345.171C53.9634 345.805 54.0335 346.415 54.0335 346.92C54.0335 347.941 53.8232 348.563 53.9167 348.598L53.905 348.574Z" fill="#303E44"/>
<path d="M124.296 208.586C124.296 208.586 70.3079 185.839 53.5893 184.865C43.1096 184.254 35.1767 191.015 36.6021 201.919C37.3148 207.365 52.2341 271.18 52.2341 271.18L74.9928 260.734L64.0574 216.614L108.407 238.269L124.296 208.574V208.586Z" fill="#303E44"/>
<path d="M57.2463 205.452C57.071 205.605 58.8585 207.917 60.7395 210.981C62.6322 214.044 63.8939 216.685 64.1042 216.591C64.3029 216.521 63.3448 213.68 61.4171 210.558C59.5011 207.424 57.3981 205.3 57.2463 205.441V205.452Z" fill="#455A64"/>
<path d="M52.8299 207.987C52.7131 208.186 55.447 209.923 58.6365 212.294C61.8376 214.654 64.3028 216.743 64.4546 216.578C64.5948 216.426 62.3517 214.043 59.1038 211.649C55.8675 209.254 52.9234 207.799 52.8299 207.987Z" fill="#455A64"/>
<path d="M166.425 222.271C166.425 222.271 159.637 231.062 153.153 233.468C145.022 236.485 84.8536 265.006 84.8536 265.006C84.8536 265.006 73.9415 346.438 74.8061 343.046L49.6289 342.436L52.3628 267.424C52.6899 257.811 60.354 246.79 68.579 241.884L124.284 208.585L166.413 222.271H166.425Z" fill="#303E44"/>
<path d="M51.8837 281.145C51.8837 281.145 51.9421 280.792 51.9889 280.112C52.0239 279.361 52.0823 278.375 52.1407 277.166C52.2809 274.607 52.4211 270.886 53.1338 266.379C53.8815 261.907 55.2368 256.508 58.5781 251.508C60.2371 249.02 62.4569 246.766 65.0506 244.795C67.6442 242.823 70.565 241.086 73.591 239.36C85.7064 232.388 96.1628 225.276 103.897 220.405C107.752 217.94 110.883 215.98 113.057 214.642C114.085 214.008 114.914 213.492 115.557 213.093C116.129 212.729 116.421 212.529 116.41 212.506C116.398 212.482 116.082 212.635 115.487 212.952C114.891 213.269 114.015 213.738 112.905 214.372C110.673 215.628 107.495 217.517 103.605 219.924C95.7889 224.677 85.2858 231.719 73.2054 238.668C70.1795 240.393 67.2237 242.142 64.5833 244.173C61.9429 246.191 59.6647 248.527 57.9706 251.097C54.5825 256.262 53.2623 261.767 52.5847 266.285C51.9421 270.851 51.8837 274.584 51.837 277.142C51.837 278.363 51.837 279.337 51.837 280.1C51.837 280.781 51.872 281.133 51.8954 281.133L51.8837 281.145Z" fill="#455A64"/>
<path d="M144.204 230.863C144.297 230.757 143.561 230.076 142.662 228.773C141.762 227.482 140.757 225.51 140.278 223.163C139.811 220.804 139.963 218.597 140.302 217.06C140.629 215.51 141.038 214.595 140.921 214.536C140.851 214.489 140.255 215.334 139.764 216.919C139.273 218.492 139.005 220.827 139.507 223.327C140.01 225.816 141.154 227.87 142.218 229.126C143.281 230.393 144.157 230.933 144.204 230.863Z" fill="#455A64"/>
<path d="M58.8818 342.436C58.8818 342.436 58.9168 342.295 58.9636 342.025C58.9986 341.708 59.057 341.297 59.1154 340.793C59.2323 339.654 59.4075 338.058 59.6178 336.051C60.0267 331.872 60.6109 325.922 61.3235 318.598C61.674 314.9 62.0596 310.875 62.4685 306.544C62.8891 302.213 63.3214 297.576 63.6602 292.694C64.034 287.823 64.5014 282.706 65.3776 277.471C66.2889 272.259 67.6441 266.896 70.0041 261.813C72.3174 256.708 75.6003 252.248 79.1403 248.351C82.7387 244.478 86.6292 241.156 90.543 238.257C98.3707 232.471 106.093 228.245 112.461 224.513C118.851 220.827 123.945 217.682 127.333 215.311C129.039 214.137 130.324 213.186 131.189 212.517C131.586 212.2 131.901 211.954 132.158 211.754C132.369 211.578 132.485 211.485 132.474 211.473C132.474 211.473 132.345 211.531 132.112 211.696C131.843 211.884 131.516 212.107 131.095 212.4C130.207 213.022 128.887 213.938 127.17 215.064C123.735 217.353 118.618 220.405 112.192 224.032C105.801 227.694 98.0319 231.872 90.1225 237.67C86.1736 240.569 82.2363 243.903 78.5795 247.823C74.9811 251.766 71.6514 256.285 69.2914 261.485C66.8964 266.661 65.5295 272.083 64.6182 277.342C63.742 282.612 63.2863 287.752 62.9358 292.635C62.6204 297.518 62.2115 302.154 61.8259 306.485C61.4521 310.816 61.1016 314.854 60.7861 318.551C60.1786 325.886 59.6762 331.837 59.3257 336.027C59.1739 338.046 59.057 339.631 58.9752 340.781C58.9402 341.286 58.9168 341.696 58.9051 342.025C58.8935 342.307 58.9051 342.448 58.9051 342.448L58.8818 342.436Z" fill="#455A64"/>
<path d="M118.162 79.4063C116.608 74.9814 111.444 72.188 106.911 73.3265C105.871 73.5847 104.843 74.0307 103.78 74.0072C102.46 73.9838 101.268 73.2561 99.9714 72.9978C97.1909 72.4345 94.1532 74.418 93.5224 77.1997C91.3142 76.742 88.8608 77.0589 87.0966 78.4791C85.3442 79.8993 84.5263 82.5636 85.6012 84.5589C86.0568 85.4157 86.8046 86.0965 87.2251 86.9768C87.9145 88.4205 87.599 90.1576 88.078 91.6834C88.7907 93.9486 91.174 95.3454 93.5224 95.6153C95.8707 95.8853 98.219 95.2397 100.497 94.6059" fill="#303E44"/>
<path d="M107.332 125.827C107.04 123.561 106.841 121.965 106.841 121.965C106.841 121.965 99.3172 121.918 96.2796 112.54C94.7725 107.881 93.7677 100.005 93.1602 93.5379C92.6111 87.7162 96.9923 82.5988 102.81 82.2937L122.812 81.2373L123.244 84.3477L128.513 122.986C129.319 128.878 125.195 134.301 119.319 135.076C113.465 135.85 108.115 131.695 107.344 125.827H107.332Z" fill="#FFC7B1"/>
<path d="M95.9758 99.0774C96.0576 99.7347 96.6768 100.204 97.3544 100.134C98.0321 100.063 98.5227 99.4765 98.441 98.8192C98.3592 98.162 97.74 97.6925 97.0624 97.7629C96.3847 97.8333 95.894 98.4202 95.9758 99.0774Z" fill="#303E44"/>
<path d="M95.4853 97.3405C95.6605 97.4813 96.4783 96.6362 97.7985 96.425C99.1187 96.202 100.194 96.7301 100.31 96.5423C100.369 96.4602 100.17 96.1902 99.7029 95.9555C99.2355 95.709 98.4878 95.533 97.6583 95.6621C96.8405 95.8029 96.1979 96.2137 95.8474 96.5893C95.4853 96.9649 95.4035 97.2818 95.4853 97.3405Z" fill="#303E44"/>
<path d="M108.524 96.9419C108.605 97.5992 109.225 98.0687 109.902 97.9983C110.58 97.9278 111.071 97.341 110.989 96.6837C110.907 96.0264 110.288 95.5569 109.61 95.6274C108.932 95.6978 108.442 96.2846 108.524 96.9419Z" fill="#303E44"/>
<path d="M108.5 95.5208C108.675 95.6617 109.505 94.8166 110.813 94.6054C112.134 94.3823 113.208 94.9105 113.325 94.7227C113.384 94.6406 113.185 94.3706 112.718 94.1359C112.25 93.8894 111.503 93.7133 110.673 93.8424C109.855 93.9833 109.213 94.3941 108.862 94.7697C108.512 95.1453 108.418 95.4622 108.5 95.5208Z" fill="#303E44"/>
<path d="M105.264 106.12C105.264 106.038 104.411 106.038 103.056 106.073C102.717 106.097 102.378 106.073 102.285 105.85C102.168 105.615 102.25 105.228 102.355 104.805C102.542 103.937 102.741 103.021 102.939 102.071C103.745 98.1739 104.271 94.9932 104.107 94.9697C103.956 94.9345 103.173 98.0683 102.367 101.965C102.18 102.927 101.993 103.843 101.818 104.712C101.747 105.122 101.596 105.592 101.853 106.073C101.981 106.308 102.262 106.46 102.484 106.484C102.706 106.519 102.904 106.484 103.068 106.484C104.423 106.343 105.252 106.214 105.241 106.143L105.264 106.12Z" fill="#303E44"/>
<path d="M106.841 121.965C106.841 121.965 113.349 121.354 119.108 116.483C119.108 116.483 117.041 123.584 107.332 124.218L106.841 121.965Z" fill="#AA6550"/>
<path d="M109.295 106.414C109.073 106.437 109.295 107.881 108.243 109.09C107.18 110.311 105.626 110.393 105.649 110.592C105.649 110.686 106.035 110.815 106.678 110.733C107.308 110.651 108.208 110.299 108.862 109.559C109.517 108.808 109.703 107.928 109.657 107.329C109.622 106.719 109.4 106.39 109.306 106.414H109.295Z" fill="#303E44"/>
<path d="M107.332 90.3692C107.519 90.7096 108.816 90.3223 110.393 90.2636C111.97 90.1697 113.29 90.4279 113.442 90.0758C113.512 89.9115 113.244 89.6063 112.683 89.3363C112.122 89.0664 111.281 88.8669 110.334 88.9138C109.388 88.9608 108.559 89.2424 108.033 89.5594C107.495 89.8763 107.262 90.2049 107.344 90.3692H107.332Z" fill="#303E44"/>
<path d="M95.3566 93.4203C95.637 93.6785 96.5015 93.2208 97.5881 93.033C98.6746 92.8099 99.6443 92.9156 99.8079 92.5635C99.878 92.3991 99.6793 92.1175 99.2354 91.8945C98.7914 91.6714 98.0904 91.5541 97.3427 91.6949C96.595 91.8358 95.9875 92.2113 95.6603 92.5869C95.3215 92.9625 95.2398 93.2912 95.3683 93.4203H95.3566Z" fill="#303E44"/>
<path d="M92.1555 89.3242C92.1555 89.3242 97.448 91.12 103.523 87.0355C107.507 84.3594 112.344 82.681 113.547 83.4087C114.751 84.1246 115.533 88.5143 119.915 89.2538C119.915 89.2538 120.686 97.7045 123.98 96.9768C126.329 96.4604 124.962 87.1411 123.98 81.8242C123.583 79.6997 121.772 78.127 119.611 78.0448L113.454 77.8101L105.766 79.9697L97.5181 82.2232L91.2443 84.8406L92.1439 89.3242H92.1555Z" fill="#303E44"/>
<path d="M123.256 93.561C123.384 93.4671 128.49 90.7793 129.436 96.378C130.383 101.977 124.588 101.777 124.553 101.613C124.518 101.448 123.256 93.561 123.256 93.561Z" fill="#FFC7B1"/>
<path d="M125.896 99.1955C125.896 99.1955 126.001 99.2424 126.177 99.2894C126.352 99.3363 126.632 99.3363 126.901 99.1837C127.45 98.8668 127.789 97.8457 127.649 96.8246C127.579 96.3081 127.392 95.8504 127.146 95.4748C126.913 95.0992 126.597 94.8527 126.293 94.8527C125.99 94.8293 125.803 95.0523 125.768 95.2166C125.721 95.3809 125.768 95.4865 125.744 95.51C125.733 95.5218 125.604 95.4396 125.616 95.1931C125.616 95.0757 125.663 94.9349 125.779 94.8058C125.896 94.6767 126.083 94.5828 126.293 94.571C126.726 94.5241 127.181 94.8645 127.45 95.2635C127.742 95.6743 127.964 96.1908 128.046 96.7659C128.198 97.9044 127.801 99.0546 127.041 99.4185C126.667 99.5828 126.317 99.5241 126.13 99.4185C125.931 99.3128 125.885 99.1837 125.896 99.172V99.1955Z" fill="#AA6550"/>
<path d="M94.8309 75.1342C94.8309 75.1342 95.0295 75.4276 95.415 75.8854C95.8006 76.3431 96.5015 76.8948 97.518 77.2469C98.5344 77.6108 99.8312 77.7046 101.233 77.4112C102.635 77.1413 104.119 76.5427 105.731 75.9793C107.332 75.4159 108.979 75.0168 110.51 75.1225C112.04 75.1929 113.372 75.8971 114.131 76.7657C114.926 77.6225 115.241 78.5732 115.241 79.2187C115.265 79.8643 115.101 80.2047 115.078 80.1929C115.019 80.1929 115.101 79.8408 115.008 79.2422C114.926 78.6554 114.587 77.8103 113.828 77.0708C113.08 76.3079 111.9 75.7328 110.475 75.6976C109.061 75.6272 107.507 76.0145 105.93 76.5661C104.353 77.1178 102.822 77.7281 101.338 77.9746C99.8663 78.2563 98.4409 78.1037 97.3778 77.6577C96.3029 77.2352 95.5903 76.5779 95.2281 76.038C94.8659 75.5098 94.7958 75.146 94.8309 75.1342Z" fill="#455A64"/>
<path d="M113.652 80.4977C113.652 80.4977 113.372 80.2043 112.788 79.7935C112.215 79.3827 111.246 78.9954 109.984 78.9602C108.722 78.9015 107.25 79.2653 105.731 80.0048C104.201 80.709 102.6 81.7536 100.661 82.3874C96.7469 83.655 92.9031 82.6222 90.6834 81.2959C89.5384 80.6386 88.7323 79.9344 88.2299 79.4062C87.7275 78.8663 87.4939 78.5376 87.5289 78.5142C87.6224 78.4203 88.6271 79.7348 90.8936 80.9203C93.1018 82.1057 96.7703 83.0212 100.485 81.8123C102.32 81.2137 103.92 80.2043 105.509 79.5001C107.075 78.7724 108.687 78.4085 110.019 78.5376C111.351 78.6315 112.391 79.1245 112.94 79.6175C113.512 80.1104 113.687 80.4977 113.664 80.5095L113.652 80.4977Z" fill="#455A64"/>
<path d="M96.3498 175.873L69.2216 152.646L60.2723 154.676C60.2723 154.676 69.7006 174.371 76.5235 181.589C76.5235 181.589 83.2647 190.662 94.387 186.742C105.509 182.822 96.3498 175.885 96.3498 175.885V175.873Z" fill="#FFC7B1"/>
<path d="M67.177 127.059H55.6457C53.9049 127.059 52.3394 129.089 52.9703 130.756L64.5716 153.444C65.0156 154.324 65.9269 154.876 66.9082 154.876L80.963 154.84C82.5753 154.617 83.1595 152.822 82.4935 151.847L71.3011 129.629C70.53 128.045 68.9294 127.047 67.177 127.047V127.059Z" fill="#455A64"/>
<path d="M66.3942 128.42H54.8629C53.4142 128.42 52.4796 129.946 53.1455 131.237L64.4665 153.432C64.9104 154.312 65.8217 154.864 66.8031 154.864H80.706C81.5589 154.864 82.108 153.972 81.7224 153.209L70.53 130.991C69.7589 129.406 68.1583 128.408 66.4059 128.408L66.3942 128.42Z" fill="#303E44"/>
<path d="M65.413 137.716L58.3914 140.533L56.8843 146.214L60.2607 154.665L72.6565 156.472L69.023 152.74L69.4904 149.489C69.4904 149.489 72.9486 148.397 73.0304 147.869C73.1121 147.341 72.5981 145.557 72.0723 145.463C71.5466 145.381 67.9131 146.73 67.9131 146.73C67.9131 146.73 72.2125 143.315 72.084 142.763C71.9672 142.211 71.4999 140.815 70.647 140.65C69.7941 140.498 62.8544 143.773 62.8544 143.773L61.7328 146.355L60.7514 142.235C60.7514 142.235 66.9084 140.498 65.3896 137.693L65.413 137.716Z" fill="#FFC7B1"/>
<path d="M66.3008 151.038C66.3008 151.038 66.1256 150.791 66.0671 150.334C65.997 149.876 66.0321 149.219 66.2774 148.55C66.5228 147.881 66.9317 147.364 67.2705 147.059C67.621 146.754 67.878 146.648 67.9014 146.683C67.9715 146.766 67.0602 147.423 66.6162 148.679C66.1489 149.911 66.406 151.014 66.3008 151.038Z" fill="#AA6550"/>
<path d="M62.9596 149.805C62.9596 149.805 63.1699 149.113 63.24 147.963C63.2984 147.388 63.3218 146.672 63.5905 145.92C63.7307 145.545 63.9176 145.157 64.2331 144.829C64.5485 144.5 64.9574 144.277 65.378 144.101C67.0604 143.491 68.5675 142.998 69.6774 142.634C70.7873 142.282 71.4766 142.082 71.4883 142.129C71.5 142.176 70.8457 142.458 69.7592 142.869C68.6843 143.291 67.1655 143.831 65.5182 144.43C65.121 144.594 64.7588 144.794 64.4901 145.064C64.2214 145.334 64.0344 145.686 63.9059 146.026C63.6372 146.718 63.5788 147.411 63.497 147.986C63.3568 149.16 63.0063 149.829 62.9596 149.805Z" fill="#AA6550"/>
<path d="M61.3473 148.526C61.2538 148.514 61.2655 147.892 61.394 147.141C61.5225 146.39 61.6978 145.791 61.7913 145.815C61.8847 145.827 61.873 146.449 61.7445 147.2C61.616 147.951 61.4408 148.55 61.3473 148.526Z" fill="#AA6550"/>
<path d="M61.1603 132.705C61.1603 133.514 61.8146 134.183 62.6324 134.183C63.4502 134.183 64.1045 133.526 64.1045 132.705C64.1045 131.883 63.4502 131.226 62.6324 131.226C61.8146 131.226 61.1603 131.883 61.1603 132.705Z" fill="#FAFAFA"/>
</g>
<path d="M115.402 47.6506C116.149 42.133 108.414 37.6106 102.59 37.1391C99.8087 36.9121 96.9405 37.3487 94.2982 36.4232C88.5964 34.4327 86.3192 27.0292 80.7739 24.6894C76.6192 22.9259 71.8388 24.4973 67.8058 26.5403C63.7728 28.5832 59.792 31.1325 55.2897 31.4294C51.3784 31.6738 47.1195 30.2246 43.695 32.1453C41.1396 33.5771 39.8011 36.528 37.4543 38.2741C35.1597 39.9853 32.1524 40.3345 29.3015 40.4916C26.4506 40.6488 23.4954 40.6837 20.8879 41.8711C18.2804 43.0584 16.1422 45.8347 16.6811 48.6459L115.402 47.6681V47.6506Z" fill="#EBEBEB"/>
</g>
<defs>
<filter id="filter0_d_23_308" x="-5" y="0" width="399" height="456" filterUnits="userSpaceOnUse" color-interpolation-filters="sRGB">
<feFlood flood-opacity="0" result="BackgroundImageFix"/>
<feColorMatrix in="SourceAlpha" type="matrix" values="0 0 0 0 0 0 0 0 0 0 0 0 0 0 0 0 0 0 127 0" result="hardAlpha"/>
<feOffset dy="4"/>
<feGaussianBlur stdDeviation="2.5"/>
<feComposite in2="hardAlpha" operator="out"/>
<feColorMatrix type="matrix" values="0 0 0 0 0 0 0 0 0 0 0 0 0 0 0 0 0 0 0.3 0"/>
<feBlend mode="normal" in2="BackgroundImageFix" result="effect1_dropShadow_23_308"/>
<feBlend mode="normal" in="SourceGraphic" in2="effect1_dropShadow_23_308" result="shape"/>
</filter>
<filter id="filter1_d_23_308" x="147.346" y="0.794922" width="218.684" height="439.33" filterUnits="userSpaceOnUse" color-interpolation-filters="sRGB">
<feFlood flood-opacity="0" result="BackgroundImageFix"/>
<feColorMatrix in="SourceAlpha" type="matrix" values="0 0 0 0 0 0 0 0 0 0 0 0 0 0 0 0 0 0 127 0" result="hardAlpha"/>
<feOffset dy="4"/>
<feGaussianBlur stdDeviation="2"/>
<feComposite in2="hardAlpha" operator="out"/>
<feColorMatrix type="matrix" values="0 0 0 0 0 0 0 0 0 0 0 0 0 0 0 0 0 0 0.25 0"/>
<feBlend mode="normal" in2="BackgroundImageFix" result="effect1_dropShadow_23_308"/>
<feBlend mode="normal" in="SourceGraphic" in2="effect1_dropShadow_23_308" result="shape"/>
</filter>
<filter id="filter2_d_23_308" x="58.6937" y="145.734" width="745.09" height="293.96" filterUnits="userSpaceOnUse" color-interpolation-filters="sRGB">
<feFlood flood-opacity="0" result="BackgroundImageFix"/>
<feColorMatrix in="SourceAlpha" type="matrix" values="0 0 0 0 0 0 0 0 0 0 0 0 0 0 0 0 0 0 127 0" result="hardAlpha"/>
<feOffset dy="4"/>
<feGaussianBlur stdDeviation="2"/>
<feComposite in2="hardAlpha" operator="out"/>
<feColorMatrix type="matrix" values="0 0 0 0 0 0 0 0 0 0 0 0 0 0 0 0 0 0 0.25 0"/>
<feBlend mode="normal" in2="BackgroundImageFix" result="effect1_dropShadow_23_308"/>
<feBlend mode="normal" in="SourceGraphic" in2="effect1_dropShadow_23_308" result="shape"/>
</filter>
<filter id="filter3_d_23_308" x="31.0771" y="72.9019" width="142.76" height="302.088" filterUnits="userSpaceOnUse" color-interpolation-filters="sRGB">
<feFlood flood-opacity="0" result="BackgroundImageFix"/>
<feColorMatrix in="SourceAlpha" type="matrix" values="0 0 0 0 0 0 0 0 0 0 0 0 0 0 0 0 0 0 127 0" result="hardAlpha"/>
<feOffset dy="4"/>
<feGaussianBlur stdDeviation="2"/>
<feComposite in2="hardAlpha" operator="out"/>
<feColorMatrix type="matrix" values="0 0 0 0 0 0 0 0 0 0 0 0 0 0 0 0 0 0 0.25 0"/>
<feBlend mode="normal" in2="BackgroundImageFix" result="effect1_dropShadow_23_308"/>
<feBlend mode="normal" in="SourceGraphic" in2="effect1_dropShadow_23_308" result="shape"/>
</filter>
<clipPath id="clip0_23_308">
<rect width="389" height="446" fill="white" transform="translate(0 1)"/>
</clipPath>
</defs>
</svg>
