<svg width="14" height="19" viewBox="0 0 14 19" fill="none" xmlns="http://www.w3.org/2000/svg">
<path d="M7 0C3.14067 0 0 3.14067 0 7C0 9.25633 1.09667 11.3867 2.93533 12.6992C2.96333 12.719 2.9925 12.7377 3.02167 12.7552C3.44867 13.006 3.49067 13.8145 3.48133 13.9627C3.47999 13.9868 3.47921 14.0109 3.479 14.035V16.3333C3.479 16.772 3.724 17.1722 4.11483 17.3717L6.46917 18.5745C6.63265 18.6582 6.81358 18.7021 6.99725 18.7028C7.18091 18.7034 7.36213 18.6606 7.52617 18.578L9.9085 17.3752C10.1013 17.2779 10.2633 17.129 10.3764 16.945C10.4895 16.761 10.5492 16.5493 10.549 16.3333V14.049C10.549 12.8975 11.2525 12.5172 11.2595 12.5137C11.3528 12.4705 11.4392 12.4145 11.5173 12.348C12.2956 11.6912 12.9211 10.8722 13.3499 9.94847C13.7787 9.02472 14.0006 8.01844 14 7C14 3.14067 10.8593 0 7 0ZM4.64567 14.0362C4.64567 14.0362 4.64567 14.0128 4.64683 14H9.38583C9.38583 14.0175 9.38117 14.0303 9.38117 14.049V15.1667H4.64567V14.0362ZM7 17.5362L4.64683 16.3333H9.38233L7 17.5362ZM10.7637 11.4567C10.7637 11.4567 9.982 11.8242 9.59467 12.8333H4.459C4.31433 12.4297 4.0635 12.0143 3.61317 11.7495C2.85605 11.2104 2.23892 10.498 1.81331 9.67176C1.38771 8.84552 1.16598 7.92942 1.16667 7C1.16667 3.77883 3.77883 1.16667 7 1.16667C10.2212 1.16667 12.8333 3.77883 12.8333 7C12.8342 7.84884 12.6494 8.6876 12.2919 9.45747C11.9344 10.2273 11.4128 10.9097 10.7637 11.4567ZM7.58333 2.33333C7.42862 2.33333 7.28025 2.39479 7.17085 2.50419C7.06146 2.61358 7 2.76196 7 2.91667C7 3.07138 7.06146 3.21975 7.17085 3.32915C7.28025 3.43854 7.42862 3.5 7.58333 3.5C8.89583 3.5 10.5 4.6935 10.5 6.4715C10.5 6.62621 10.5615 6.77458 10.6709 6.88398C10.7802 6.99338 10.9286 7.05483 11.0833 7.05483C11.238 7.05483 11.3864 6.99338 11.4958 6.88398C11.6052 6.77458 11.6667 6.62621 11.6667 6.4715C11.6667 3.81033 9.58883 2.33333 7.58333 2.33333Z" fill="#919191"/>
</svg>
